<?xml version="1.0" standalone="no"?><!DOCTYPE svg PUBLIC "-//W3C//DTD SVG 1.1//EN" "http://www.w3.org/Graphics/SVG/1.1/DTD/svg11.dtd"><svg t="1592302541970" class="icon" viewBox="0 0 1024 1024" version="1.1" xmlns="http://www.w3.org/2000/svg" p-id="1344" xmlns:xlink="http://www.w3.org/1999/xlink" width="200" height="200"><defs><style type="text/css"></style></defs><path d="M355.363544 619.034758c20.884656 41.023322 82.047668 74.588789 155.889443 74.588789 72.723302 0 135.750777-32.818453 157.381423-73.469292-11.561313-5.966898-17.528212-7.831362-25.733081-11.933797-18.274202 30.953989-68.994374 59.297524-130.529869 59.297524-61.163011 0-112.255667-28.343535-131.275859-60.789505L355.363544 619.034758zM120.410394 481.418494c0 211.085556 146.939607 385.622708 337.885474 413.220253-2.983961 20.512173-9.323343 64.891939-6.712889 64.891939 2.237971 0 105.169271-46.991244 173.417655-78.317717 161.111374-51.838645 278.587949-211.085556 278.587949-399.794475 0-230.105748-175.283142-416.94918-391.589606-416.94918S120.410394 251.312746 120.410394 481.418494zM165.163667 481.418494c0-207.355605 152.160515-375.179868 346.836333-375.179868s352.430748 167.824263 352.430748 375.179868c0 176.401616-111.883183 324.459696-265.534656 364.738052l-106.288768 50.720172 0-41.023322C309.491797 842.426595 165.163667 679.824263 165.163667 481.418494z" p-id="1345"></path></svg>